<svg width="20" height="20" viewBox="0 0 20 20" fill="none" xmlns="http://www.w3.org/2000/svg">
<g id="Frame" opacity="0.5">
<path id="Vector" d="M10 19.7732L4.6967 14.47C1.76777 11.541 1.76777 6.79226 4.6967 3.86333C7.62563 0.934393 12.3743 0.934393 15.3033 3.86333C18.2323 6.79226 18.2323 11.541 15.3033 14.47L10 19.7732ZM14.1248 13.2914C16.4028 11.0134 16.4028 7.31989 14.1248 5.04183C11.8468 2.76378 8.15327 2.76378 5.87521 5.04183C3.59715 7.31989 3.59715 11.0134 5.87521 13.2914L10 17.4162L14.1248 13.2914ZM10 10.8333C9.0795 10.8333 8.33333 10.0871 8.33333 9.16663C8.33333 8.24615 9.0795 7.49996 10 7.49996C10.9205 7.49996 11.6667 8.24615 11.6667 9.16663C11.6667 10.0871 10.9205 10.8333 10 10.8333Z" fill="#0D0E13"/>
</g>
</svg>
