<svg width="20" height="20" viewBox="0 0 20 20" fill="none" xmlns="http://www.w3.org/2000/svg">
<g id="Frame" opacity="0.5">
<path id="Vector" d="M12.9167 4.16667C11.3058 4.16667 10 5.4725 10 7.08333C10 8.69417 11.3058 10 12.9167 10C14.5275 10 15.8333 8.69417 15.8333 7.08333C15.8333 5.4725 14.5275 4.16667 12.9167 4.16667ZM8.33333 7.08333C8.33333 4.55203 10.3853 2.5 12.9167 2.5C15.448 2.5 17.5 4.55203 17.5 7.08333C17.5 8.04792 17.202 8.94292 16.6931 9.68125L18.9226 11.9108L17.7441 13.0893L15.5146 10.8598C14.7762 11.3687 13.8812 11.6667 12.9167 11.6667C10.3853 11.6667 8.33333 9.61467 8.33333 7.08333ZM2.5 3.33333H6.66667V5H2.5V3.33333ZM2.5 9.16667H6.66667V10.8333H2.5V9.16667ZM17.5 15V16.6667H2.5V15H17.5Z" fill="#0D0E13"/>
</g>
</svg>
